PathFileType	4	(X/Y/Z)	Patient4_TMGait_0pt5_01_right_21.trc.trc
DataRate	CameraRate	NumFrames	NumMarkers	Units	OrigDataRate	OrigDataStartFrame	OrigNumFrames
77.348066298342	77.348066298342	4	33	mm	77.348066298342	89	       141
Frame#	Time	L.ASIS			Sacral			L.Shoulder			Chest			R.Shoulder			Neck			R.ASIS			R.Thigh.Superior			R.Thigh.Lateral			R.Thigh.Inferior			R.Patella			L.Thigh.Superior			L.Thigh.Lateral			L.Thigh.Inferior			L.Patella			L.Shank.Superior			L.Shank.Lateral			L.Shank.Inferior			R.Shank.Superior			R.Shank.Lateral			R.Shank.Inferior			R.Heel			R.Midfoot.Superior			R.Midfoot.Lateral			R.Toe			L.Heel			L.Midfoot.Lateral			L.Midfoot.Superior			L.Toe			L.Elbow			L.Wrist			R.Elbow			R.Wrist			
		X1	Y1	Z1	X2	Y2	Z2	X3	Y3	Z3	X4	Y4	Z4	X5	Y5	Z5	X6	Y6	Z6	X7	Y7	Z7	X8	Y8	Z8	X9	Y9	Z9	X10	Y10	Z10	X11	Y11	Z11	X12	Y12	Z12	X13	Y13	Z13	X14	Y14	Z14	X15	Y15	Z15	X16	Y16	Z16	X17	Y17	Z17	X18	Y18	Z18	X19	Y19	Z19	X20	Y20	Z20	X21	Y21	Z21	X22	Y22	Z22	X23	Y23	Z23	X24	Y24	Z24	X25	Y25	Z25	X26	Y26	Z26	X27	Y27	Z27	X28	Y28	Z28	X29	Y29	Z29	X30	Y30	Z30	X31	Y31	Z31	X32	Y32	Z32	X33	Y33	Z33	

89	28.607714285714	917.641371966158	962.013023967203	305.846680718835	713.498478879562	1002.764838560957	478.159687329527	852.423149786383	1434.934281583718	292.728977566611	975.880757355273	1367.043281275604	439.092050003716	911.442914017262	1437.468314835199	622.458047797789	867.881850677730	1493.857249816047	442.953348025504	946.264007100426	935.866146577504	578.155172128795	967.299800349471	726.453106605750	556.624700183383	879.240620499095	623.623506355071	621.853908059869	952.494224526177	559.500654252437	546.602788003242	938.454994859371	454.140551019402	563.931171980943	986.836247527340	763.408601822757	338.051258758120	912.644688906476	637.908318832591	279.524847310967	1006.833402734249	569.362690389109	340.856536035960	1015.673046365036	497.484081330067	349.681703598552	991.351449993003	423.237986674243	342.768689706604	907.183787357356	304.688845846812	293.151745265820	964.154456781999	196.043791732499	362.850815652866	866.637497193040	384.738055642552	568.937339399741	753.101464007937	331.741835099279	632.133262966396	744.917836802900	224.917225945835	576.946805573360	546.750361531719	132.433333577374	553.789424949070	724.845244548577	111.824723619597	585.461133969410	620.099851786794	86.627951136530	623.595476347979	812.295087291029	33.697900836394	606.261975498409	842.176643885438	38.154662727998	405.812218462412	915.798910719554	35.806130083545	324.474779379624	998.701381840968	97.075927778401	350.549182589193	1127.036146839415	46.269450887427	322.082297960050	772.683085898645	1091.996578213073	172.427533992177	867.576866173839	846.952373714737	164.010540205941	1038.151990551286	1115.709300564779	723.547149279041	1256.191991322952	1152.885783266905	606.380566893406	
90	28.620642857143	918.167123401991	962.321794731198	303.435419276597	713.270677677668	1003.043585180460	474.694980975253	854.256037099456	1435.423446901981	290.018479691097	976.476948553242	1367.296933410377	437.331959265857	910.685422184081	1437.793813164635	620.264741819563	868.415725641589	1494.256782983247	440.402104070918	945.433794188150	936.116907531912	575.744762081511	971.400498334225	728.182823186208	554.652711076682	885.955837490281	623.808585772313	620.252107676364	961.316598890835	560.740501670110	545.493312271844	948.386957313628	454.112900447572	563.797395761668	985.625863487517	762.352433242674	334.588974557224	909.514835525589	637.771349987349	277.045197674787	1002.993531410418	568.394178214869	338.281297550058	1011.066765103352	496.717393285219	347.474296743882	986.526364738195	422.605406148185	340.905342102989	901.939053356061	304.206941140263	291.772045465658	958.329936962969	195.694271912269	362.108286163904	874.673557098893	385.521338651799	568.541441805409	759.045938528988	336.505577127297	631.247337419796	748.181047133924	229.568368795784	576.920834434219	547.512543377193	145.537999580477	553.374909196363	724.029752221253	115.497718351404	585.536943842580	618.057944567873	95.741029787929	623.168252310333	806.553465636569	32.767144985567	606.474764895528	835.676991272308	38.103659632931	405.708513430704	909.276577965512	35.698019937950	324.320740356241	992.261949046205	96.895301948696	350.376490096650	1120.611971068318	45.892363440363	321.969596317135	776.946391298842	1092.554708002253	167.487665525698	878.751403598657	850.151502632421	160.896774397277	1030.886374862826	1113.142322987553	722.313636702789	1252.985840778240	1140.143585883260	609.026775314768	
91	28.633571428571	918.511429725740	962.561760053303	301.142093892033	712.798684136009	1003.314427631056	471.333991468881	856.056088113410	1435.832903860725	287.459328516514	977.023373717961	1367.421914686220	435.713719278204	909.887692781400	1437.986422372184	618.226010509531	868.985667998787	1494.593227232721	437.998674443177	944.409085659394	936.310817589551	573.489704283304	975.534958534262	730.176423633755	552.628907020768	892.913319189006	624.223831458038	618.677210829737	970.295375742903	562.376683348636	544.275727915739	958.612171927339	454.537395212748	563.350195903039	984.254646175263	761.343820315730	331.395242131073	906.365592534364	637.679837920368	274.675391768346	999.049407743429	567.470816684829	335.919276402858	1006.325440855663	495.966686658574	345.421331284059	981.599154703808	422.008290577012	339.138899032979	896.623106145900	303.756506216921	290.444292147780	952.476136251035	195.378052360704	361.406262821409	883.145154221444	386.652011177476	567.898749526916	765.666349739735	341.527886284660	630.222898222858	752.051441027709	234.622979130897	576.652122994511	549.302136320232	159.164186567575	552.733424172124	723.809938692002	119.794253119356	585.415719742338	616.860897216822	105.571102918323	622.588289488061	801.316298863822	31.887173858609	606.724383791777	829.183704963981	38.062180755845	405.592657212307	902.763493025694	35.600715410262	324.163768111456	985.822977333304	96.735350257626	350.200797893877	1114.184909280672	45.567309996416	321.857627538024	781.599999472985	1093.038335600944	162.492007631106	890.308746635792	853.536045954089	157.756855529025	1022.910733995399	1110.278249138961	721.075103447077	1248.719462126855	1126.441070522084	612.001557548850	
92	28.646500000000	918.680934737215	962.760078400490	298.979687778070	712.095825247192	1003.608528290245	468.089475767630	857.794511656933	1436.188683123309	285.070147869403	977.508826429899	1367.454224423859	434.243148419812	909.051545689281	1438.075795735154	616.348265290816	869.599811383529	1494.893174358888	435.759641756586	943.197371371927	936.493225992358	571.394726389428	979.588011786306	732.464098283969	550.554845253212	899.963045420869	624.936051856513	617.109790491030	979.257402525533	564.463394840273	542.935156021426	968.995198299459	455.472963136480	562.585318439179	982.749604942822	760.405495610045	328.498819578477	903.195120247912	637.629637471204	272.475998374434	995.022073607124	566.594116960008	333.807323073741	1001.481251786491	495.241797361282	343.592864684278	976.594025731562	421.457190925200	337.531118776486	891.254032569143	303.359531973288	289.212190769112	946.594094543668	195.100653358308	360.775258112619	891.933301646765	388.169676605344	567.008341002678	772.857018970758	346.747637889229	629.055179410157	756.516721103736	239.995092493033	576.132035813886	552.130013676004	172.915595383968	551.861391173121	724.318956913578	124.638270758301	585.103460378665	616.641277429290	115.830962791786	621.853881820400	796.851674888324	31.193709158534	606.964773517187	822.693950718522	38.029738512193	405.468912407871	896.256841472623	35.517956842369	324.009622154170	979.378624435158	96.603797718261	350.029834028089	1107.750069556968	45.307990979470	321.747064202432	786.692490914070	1093.455152941108	157.502899188531	902.242426836048	857.109215541618	154.630685596160	1014.270550586560	1107.211647835485	719.833013159832	1243.305334875404	1111.818629748090	615.287255712365	
